<?xml version="1.0" encoding="UTF-8"?>
<svg width="9.3631in" height="1.9763in" version="1.1" viewBox="0 0 237.82 50.197" xmlns="http://www.w3.org/2000/svg">
 <path fill="currentColor" transform="translate(.9197 -61.973)" d="m115.41 110.56h-27.084v-45.478h10.244v37.169h16.84zm20.614 0.79284q-8.1188 0-12.781-4.5351-4.6302-4.5668-4.6302-12.368 0-8.0553 4.8205-12.59 4.8205-4.5668 13.034-4.5668 8.087 0 12.686 4.5668 4.5985 4.5351 4.5985 12.02 0 8.087-4.7571 12.781-4.7254 4.6936-12.971 4.6936zm0.25371-26.386q-3.552 0-5.5182 2.442t-1.9663 6.9136q0 9.3556 7.5479 9.3556 7.199 0 7.199-9.6093 0-9.1019-7.2625-9.1019zm48.586 24.42q-3.3934 1.9663-9.7996 1.9663-7.4845 0-12.115-4.5351-4.6302-4.5351-4.6302-11.702 0-8.2773 4.9474-13.034 4.9791-4.7888 13.288-4.7888 5.7402 0 8.309 1.5223v8.4993q-3.1397-2.3468-7.0088-2.3468-4.3131 0-6.8502 2.5371-2.5054 2.5054-2.5054 6.9453 0 4.3131 2.4103 6.7868 2.4102 2.442 6.6282 2.442 3.7422 0 7.3259-2.3468zm33.585 1.1734h-9.4824v-4.6619h-0.12685q-3.2665 5.4548-9.6727 5.4548-4.7254 0-7.4528-2.664-2.6957-2.6957-2.6957-7.1673 0-9.4507 11.195-10.91l8.8165-1.1734q0-5.3279-5.7719-5.3279-5.8036 0-11.036 3.4568v-7.5479q2.0931-1.0783 5.7085-1.9028 3.6471-0.82456 6.6282-0.82456 13.891 0 13.891 13.859zm-9.419-13.193v-2.1883l-5.8988 0.76113q-4.8839 0.63428-4.8839 4.4082 0 1.7126 1.1734 2.8225 1.2051 1.0783 3.2348 1.0783 2.8225 0 4.5985-1.9346 1.776-1.9663 1.776-4.9474zm27.369 13.193h-10.022v-48.078h10.022z" style="paint-order:stroke fill markers"/>
 <path fill="currentColor" transform="translate(.9197 -61.973)" d="m62.911 112.15q-3.9432 0-7.4114-1.4965-3.4681-1.4964-6.0336-4.0619t-4.0619-6.0335q-1.4965-3.4682-1.4965-7.4114t1.4965-7.4113q1.4964-3.4682 4.0619-6.0336 2.5655-2.5655 6.0336-4.062 3.4682-1.4965 7.4114-1.4965 7.2212 0 12.518 4.6558 5.2972 4.6558 6.2949 11.592-0.95016-0.47476-1.9716-0.73641-1.0215-0.26144-2.1141-0.30885-0.90268-3.4681-3.2543-6.1761-2.3517-2.708-5.7723-4.0857v0.76011q0 1.5678-1.1164 2.6842-1.1165 1.1165-2.6843 1.1165h-3.8006v3.8006q0 0.80766-0.54658 1.354-0.54658 0.54658-1.354 0.54658h-3.8006v3.8006h11.402q0.52288 0 0.97393 0.26144 0.45106 0.26144 0.68879 0.73642-0.80766 1.2827-1.2352 2.708-0.42735 1.4253-0.42735 2.9455 0 2.9931 1.5441 5.5585 1.544 2.5654 3.1593 4.7983-1.9479 0.95016-4.0858 1.4728-2.1378 0.52288-4.4182 0.52288zm-1.9003-3.8956v-3.7057q-1.5678 0-2.6843-1.1164-1.1164-1.1164-1.1164-2.6843v-1.9003l-9.1216-9.1216q-0.14222 0.85514-0.26144 1.7103-0.11844 0.85514-0.11844 1.7103 0 5.7486 3.7769 10.072 3.7769 4.3232 9.5255 5.0359zm16.153 3.8956q-0.33255 0-0.57028-0.19035-0.23774-0.19033-0.33255-0.47474-0.52288-1.6628-1.4728-3.0881-0.95016-1.4253-2.0428-2.803-0.99771-1.2352-1.6153-2.708-0.61768-1.4728-0.61768-3.0881 0-2.7555 1.9479-4.7033 1.9479-1.9479 4.7033-1.9479 2.7555 0 4.7034 1.9479 1.9478 1.9479 1.9478 4.7033 0 1.6153-0.64138 3.0643t-1.5915 2.7317q-1.0927 1.3777-2.0429 2.803-0.95016 1.4252-1.4727 3.0881-0.09478 0.28514-0.33254 0.47474-0.23774 0.19035-0.57029 0.19035zm0-5.3684q0.47475-0.80766 1.0452-1.4965 0.57029-0.68881 1.0927-1.4015 0.66509-0.90269 1.164-1.9241 0.49846-1.0215 0.49846-2.1617 0-1.5678-1.1164-2.6842-1.1165-1.1164-2.6843-1.1164t-2.6842 1.1164-1.1164 2.6842q0 1.1402 0.49846 2.1617 0.49846 1.0214 1.164 1.9241 0.57028 0.71248 1.1164 1.4015 0.54658 0.68878 1.0214 1.4965zm0-4.6084q-0.99764 0-1.6866-0.68879-0.68879-0.68879-0.68879-1.6866 0-0.99763 0.68879-1.6865 0.68879-0.68879 1.6866-0.68879 0.9977 0 1.6866 0.68879 0.68879 0.68878 0.68879 1.6865t-0.68879 1.6866q-0.68878 0.68879-1.6866 0.68879z"/>
 <path fill="currentColor" transform="translate(.9197 -61.973)" d="m39.769 107.51q-6.6599 3.8374-16.555 3.8374-10.973 0-17.316-6.0573-6.3111-6.0891-6.3111-16.745 0-10.719 6.9136-17.474 6.9136-6.7551 18.394-6.7551 7.2308 0 12.749 1.998v9.6093q-5.2645-3.0445-12.876-3.0445-6.3745 0-10.402 4.1545-3.9959 4.1228-3.9959 11.036 0 7.0088 3.5837 10.846 3.6154 3.8374 9.7362 3.8374 3.6788 0 5.8354-1.0466v-8.8799h-9.1019v-8.1822h19.345z" style="paint-order:stroke fill markers"/>
</svg>
