<?xml version="1.0" encoding="UTF-8"?>
<svg width="9.3631in" height="1.9763in" version="1.1" viewBox="0 0 237.82 50.197" xmlns="http://www.w3.org/2000/svg">
 <g transform="translate(.9197 -61.973)">
  <g stroke="currentColor" stroke-linecap="round" stroke-linejoin="round">
   <g>
    <text transform="scale(.26458)" fill="none" font-family="'-apple-system', BlinkMacSystemFont, 'Segoe UI', Roboto, Oxygen, Ubuntu, Cantarell, 'Fira Sans', 'Droid Sans', 'Helvetica Neue', sans-serif-serif" stroke-width="3" style="paint-order:stroke fill markers;shape-inside:url(#rect1);white-space:pre" xml:space="preserve"/>
    <text transform="scale(.26458)" fill="none" font-family="'-apple-system', BlinkMacSystemFont, 'Segoe UI', Roboto, Oxygen, Ubuntu, Cantarell, 'Fira Sans', 'Droid Sans', 'Helvetica Neue', sans-serif-serif" font-size="192px" stroke-width="3" style="paint-order:stroke fill markers;shape-inside:url(#rect2);white-space:pre" xml:space="preserve"/>
    <text x="77.286247" y="68.453529" fill="currentColor" font-family="'-apple-system', BlinkMacSystemFont, 'Segoe UI', Roboto, Oxygen, Ubuntu, Cantarell, 'Fira Sans', 'Droid Sans', 'Helvetica Neue', sans-serif" font-size="50.8px" stroke-width=".79375" style="line-height:0;paint-order:stroke fill markers" xml:space="preserve"><tspan x="77.286247" y="68.453529" fill="currentColor" font-family="'-apple-system', BlinkMacSystemFont, 'Segoe UI', Roboto, Oxygen, Ubuntu, Cantarell, 'Fira Sans', 'Droid Sans', 'Helvetica Neue', sans-serif" stroke-width=".79375" style="line-height:0"/></text>
   </g>
   <text x="-2.7591157" y="110.55849" fill="currentColor" font-family="'-apple-system', BlinkMacSystemFont, 'Segoe UI', Roboto, Oxygen, Ubuntu, Cantarell, 'Fira Sans', 'Droid Sans', 'Helvetica Neue', sans-serif" font-size="64.95px" font-weight="bold" stroke-width="1.0148" style="line-height:0;paint-order:stroke fill markers" xml:space="preserve"><tspan x="-2.7591157" y="110.55849" font-family="'-apple-system', BlinkMacSystemFont, 'Segoe UI', Roboto, Oxygen, Ubuntu, Cantarell, 'Fira Sans', 'Droid Sans', 'Helvetica Neue', sans-serif" font-weight="bold" stroke="currentColor" stroke-width="1.0148">G<tspan fill="none" stroke="none" stroke-width="1.0148">o</tspan>Local</tspan></text>
  </g>
  <path d="m62.911 112.15q-3.9432 0-7.4114-1.4965-3.4681-1.4964-6.0336-4.0619-2.5655-2.5655-4.0619-6.0335-1.4965-3.4682-1.4965-7.4114t1.4965-7.4113q1.4964-3.4682 4.0619-6.0336 2.5655-2.5655 6.0336-4.062 3.4682-1.4965 7.4114-1.4965 7.2212 0 12.518 4.6558 5.2972 4.6558 6.2949 11.592-0.95016-0.47476-1.9716-0.73641-1.0215-0.26144-2.1141-0.30885-0.90268-3.4681-3.2543-6.1761-2.3517-2.708-5.7723-4.0857v0.76011q0 1.5678-1.1164 2.6842-1.1165 1.1165-2.6843 1.1165h-3.8006v3.8006q0 0.80766-0.54658 1.354-0.54658 0.54658-1.354 0.54658h-3.8006v3.8006h11.402q0.52288 0 0.97393 0.26144 0.45106 0.26144 0.68879 0.73642-0.80766 1.2827-1.2352 2.708-0.42735 1.4253-0.42735 2.9455 0 2.9931 1.5441 5.5585 1.544 2.5654 3.1593 4.7983-1.9479 0.95016-4.0858 1.4728-2.1378 0.52288-4.4182 0.52288zm-1.9003-3.8956v-3.7057q-1.5678 0-2.6843-1.1164-1.1164-1.1164-1.1164-2.6843v-1.9003l-9.1216-9.1216q-0.14222 0.85514-0.26144 1.7103-0.11844 0.85514-0.11844 1.7103 0 5.7486 3.7769 10.072 3.7769 4.3232 9.5255 5.0359zm16.153 3.8956q-0.33255 0-0.57028-0.19035-0.23774-0.19033-0.33255-0.47474-0.52288-1.6628-1.4728-3.0881-0.95016-1.4253-2.0428-2.803-0.99771-1.2352-1.6153-2.708-0.61768-1.4728-0.61768-3.0881 0-2.7555 1.9479-4.7033 1.9479-1.9479 4.7033-1.9479 2.7555 0 4.7034 1.9479 1.9478 1.9479 1.9478 4.7033 0 1.6153-0.64138 3.0643-0.64138 1.449-1.5915 2.7317-1.0927 1.3777-2.0429 2.803-0.95016 1.4252-1.4727 3.0881-0.09478 0.28514-0.33254 0.47474-0.23774 0.19035-0.57029 0.19035zm0-5.3684q0.47475-0.80766 1.0452-1.4965 0.57029-0.68881 1.0927-1.4015 0.66509-0.90269 1.164-1.9241 0.49846-1.0215 0.49846-2.1617 0-1.5678-1.1164-2.6842-1.1165-1.1164-2.6843-1.1164-1.5678 0-2.6842 1.1164-1.1164 1.1164-1.1164 2.6842 0 1.1402 0.49846 2.1617 0.49846 1.0214 1.164 1.9241 0.57028 0.71248 1.1164 1.4015 0.54658 0.68878 1.0214 1.4965zm0-4.6084q-0.99764 0-1.6866-0.68879-0.68879-0.68879-0.68879-1.6866 0-0.99763 0.68879-1.6865 0.68879-0.68879 1.6866-0.68879 0.9977 0 1.6866 0.68879 0.68879 0.68878 0.68879 1.6865 0 0.99772-0.68879 1.6866-0.68878 0.68879-1.6866 0.68879z"  fill="currentColor" />
 </g>
</svg>
